PathFileType	3	(X/Y/Z)	C:\Users\koon_\Desktop\
DataRate	CameraRate	NumFrames	NumMarkers	Units	OrigDataRate	OrigDataStartFrame	OrigNumFrames
100.0	100.0	14	27	mm	100.0	698	2788	
Frame#	Time	get:LFHD			get:RFHD			get:LBHD			get:RBHD			get:C7			get:T10			get:CLAV			get:STRN			get:RBAK			get:LSHO			get:LUPA			get:LELB			get:LFRA			get:LWRA			get:LWRB			get:LFIN			get:RSHO			get:RUPA			get:RELB			get:RFRA			get:RWRA			get:RWRB			get:RFIN			get:LASI			get:RASI			get:LPSI			get:RPSI			
		X1	Y1	Z1	X2	Y2	Z2	X3	Y3	Z3	X4	Y4	Z4	X5	Y5	Z5	X6	Y6	Z6	X7	Y7	Z7	X8	Y8	Z8	X9	Y9	Z9	X10	Y10	Z10	X11	Y11	Z11	X12	Y12	Z12	X13	Y13	Z13	X14	Y14	Z14	X15	Y15	Z15	X16	Y16	Z16	X17	Y17	Z17	X18	Y18	Z18	X19	Y19	Z19	X20	Y20	Z20	X21	Y21	Z21	X22	Y22	Z22	X23	Y23	Z23	X24	Y24	Z24	X25	Y25	Z25	X26	Y26	Z26	X27	Y27	Z27	
698	6.97	-98.11792	1511.111	100.37269	-242.07137	1483.4801	92.263313	-92.375809	1512.9573	-38.021748	-239.94005	1478.2385	-43.021519	-123.5339	1332.1417	-91.885155	-77.958313	1147.8337	-193.75711	-98.268639	1184.7429	62.813602	-73.25779	1027.4532	47.507843	-206.69606	1257.1932	-133.55051	42.48016	1333.4171	-8.5726337	115.33034	1122.9891	-22.164799	165.81616	1038.3289	-109.89693	148.20383	959.16089	-52.955307	127.22123	791.23206	-76.107384	198.21776	800.98584	-95.481941	188.37827	725.20343	-76.35994	-257.34528	1281.8744	11.164915	-306.25928	1148.1394	-8.3404379	-321.77667	960.92462	-130.29012	-261.30728	814.85791	-93.954201	-238.14105	723.76495	-108.54642	-301.01028	734.02087	-146.11934	-273.71344	655.44983	-110.84531	88.451813	895.56042	-71.8983	-202.36615	895.91034	-83.00811	3.480463	962.83667	-250.02617	-84.059128	960.05444	-258.88266
699	6.98	-95.332687	1509.0795	105.50574	-239.46402	1482.0089	97.80397	-89.734215	1511.4003	-32.834782	-237.41739	1477.2458	-37.759296	-121.99532	1331.6489	-87.164391	-77.318398	1148.4661	-191.43105	-96.738243	1182.4709	65.856651	-72.326942	1025.3523	48.56625	-205.62473	1257.6218	-129.41017	44.252319	1331.4253	-4.3217001	116.5684	1120.993	-20.053347	166.85254	1037.1368	-108.72976	149.66322	957.44061	-52.313557	128.31073	789.88348	-76.677246	199.17136	799.72815	-96.659019	189.46147	723.8172	-77.976105	-255.57637	1280.7943	16.012243	-304.83701	1147.3441	-4.5948291	-321.14206	961.36743	-128.39679	-260.84253	815.02002	-93.679352	-237.78525	724.01532	-109.10737	-300.56714	734.6106	-146.71796	-273.56458	655.77136	-112.16097	88.860435	895.16583	-71.988136	-202.00113	895.43561	-83.423424	3.838587	963.44489	-250.08827	-83.765274	960.65283	-258.7637
700	6.99	-92.491188	1506.934	110.83961	-236.7278	1480.4662	103.02377	-87.098389	1509.7206	-27.546097	-234.92311	1476.1238	-32.277348	-120.47964	1331.1342	-82.508354	-76.67144	1149.1082	-189.09096	-95.181122	1180.0835	68.930313	-71.364944	1023.121	49.680111	-204.57213	1257.8589	-124.95052	46.037674	1329.3525	0.064901739	117.7959	1118.95	-17.902111	167.87933	1035.863	-107.48679	150.90875	955.63531	-51.878933	129.43069	788.47003	-77.369011	200.10728	798.43689	-97.783768	190.56223	722.41296	-79.505791	-253.83168	1279.6372	20.864468	-303.41199	1146.4259	-0.82276219	-320.55347	961.81891	-126.70119	-260.43073	815.14978	-93.65596	-237.53825	724.19684	-109.55235	-300.13867	735.3205	-147.55928	-273.39297	656.09613	-113.30115	89.249161	894.76373	-72.026665	-201.99696	896.1095	-81.544884	4.2507234	963.99304	-249.9686	-83.505699	961.22137	-258.42764
701	7	-89.748131	1504.6234	116.19318	-233.93077	1478.551	107.70189	-84.411186	1507.9637	-22.079433	-232.42496	1474.9432	-26.860271	-118.85268	1330.5721	-77.788292	-76.01561	1149.6154	-186.4268	-93.651939	1177.6256	71.981613	-70.417992	1020.859	50.639347	-203.47438	1258.0631	-120.5601	47.85371	1327.1741	4.459774	119.07389	1116.7887	-15.708396	168.87425	1034.6354	-106.38975	152.19553	953.88446	-51.343151	130.48897	787.05817	-78.022171	201.03726	797.08319	-99.000458	191.62549	720.99683	-81.203316	-252.05344	1278.3589	25.740696	-301.98923	1145.4513	2.9479117	-319.95483	962.04651	-124.7411	-260.00964	815.20691	-93.593704	-237.28421	724.34155	-110.0285	-299.8306	735.92889	-148.29941	-273.32236	656.38605	-114.46069	89.641777	894.39392	-72.028381	-201.2749	894.85663	-82.983696	4.6226339	964.50092	-249.81535	-83.192001	961.74121	-258.15778
702	7.01	-86.968597	1502.1998	121.70449	-231.23827	1476.7177	113.1664	-81.859283	1506.0922	-16.607294	-229.88326	1473.6525	-21.456123	-117.29604	1329.8512	-72.791565	-75.350861	1150.1748	-183.8456	-92.128189	1175.0433	75.060341	-69.497955	1018.5193	51.650131	-202.35811	1258.2843	-116.23303	49.632267	1324.9255	8.9499035	120.29457	1114.6312	-13.435453	169.89003	1033.3312	-105.12703	153.41698	952.09271	-50.879257	131.60762	785.60284	-78.731613	201.94075	795.75732	-100.28736	192.68169	719.54559	-82.866829	-250.30171	1276.944	30.716669	-300.5463	1144.3684	6.7279453	-319.22723	962.25623	-122.79649	-259.64767	815.23291	-93.445236	-237.09268	724.43738	-110.57969	-299.36942	736.45203	-148.8568	-273.23129	656.60114	-115.62967	90.272789	893.30017	-73.474724	-200.81613	894.50867	-82.878441	5.053618	965.05157	-249.64154	-83.003929	962.2746	-257.71014
703	7.02	-84.235046	1499.6536	127.19704	-228.61316	1474.6754	118.72353	-79.240837	1504.1324	-11.001662	-227.3524	1472.22	-15.882119	-115.64443	1329.2057	-68.060928	-74.61599	1150.8298	-181.3011	-90.577507	1172.3954	78.233246	-68.564644	1016.1323	52.847576	-201.16418	1258.4294	-111.72775	51.42281	1322.5601	13.577799	121.57838	1112.3914	-11.209731	170.9044	1031.9342	-103.96605	154.68954	950.21991	-50.365345	132.71703	784.15576	-79.459373	202.78177	794.37756	-101.54858	193.69972	718.11786	-84.529961	-248.53084	1275.436	35.645485	-299.19254	1143.1665	10.394463	-318.62	962.53821	-121.02732	-259.30774	815.237	-93.153679	-236.87813	724.57349	-111.1025	-299.00702	736.92194	-149.31625	-273.19174	656.81848	-116.8026	90.711983	892.70593	-73.804176	-200.3972	894.17767	-82.752335	5.4724526	965.61682	-249.49231	-82.626785	962.87476	-257.50687
704	7.03	-81.487343	1496.9879	132.87436	-226.12585	1472.677	124.96555	-76.681961	1502.0499	-5.3846722	-224.94188	1470.6428	-10.195673	-114.00043	1328.5955	-63.373581	-73.89019	1151.349	-178.5564	-89.054863	1169.6846	81.294189	-67.648262	1013.6591	53.785015	-200.00998	1258.5563	-107.33416	53.175201	1320.0864	18.193611	122.75872	1110.061	-8.9927855	171.89957	1030.5942	-102.71507	155.80229	948.3299	-49.902191	133.71478	782.65405	-80.222443	203.59843	792.98102	-102.82399	194.61165	716.59784	-86.334183	-246.71349	1273.8043	40.621147	-297.78903	1141.9171	14.225725	-317.9415	962.68097	-119.11707	-258.92166	815.16309	-92.894524	-236.67877	724.66467	-111.53267	-298.63113	737.36969	-149.81625	-273.11768	657.01837	-117.90475	91.113235	892.12018	-74.08992	-200.22932	894.40546	-82.079376	5.9055295	966.25507	-249.49725	-82.221291	963.45886	-257.2287
705	7.04	-78.77655	1494.229	138.50038	-223.38547	1470.2777	130.05954	-74.102676	1499.8889	0.25688127	-222.43063	1468.9583	-4.4793134	-112.43562	1327.3873	-57.966648	-73.102737	1151.9144	-175.91785	-87.576782	1166.813	84.537254	-66.714447	1011.176	54.782742	-198.83217	1258.4299	-102.55798	54.960453	1317.5768	22.817167	124.05348	1107.6832	-6.8054934	172.90044	1029.1013	-101.47301	157.07703	946.44226	-49.308132	134.6467	781.13629	-80.978928	204.3593	791.58368	-104.12399	195.52284	715.10724	-88.059128	-244.84491	1272.0743	45.697456	-296.36099	1140.5807	18.050722	-317.39746	962.83014	-117.19115	-258.6803	815.06317	-92.713905	-236.53517	724.72491	-112.04996	-298.26572	737.84656	-150.29906	-273.08264	657.2066	-119.02824	91.482948	891.5033	-74.416794	-199.77863	893.95087	-82.272644	6.2924252	966.73999	-249.16922	-81.828285	964.05005	-257.01865
706	7.05	-76.09005	1491.3964	144.24652	-220.7977	1467.9628	135.91507	-71.574379	1497.6479	6.013422	-219.94255	1467.2074	1.2360435	-110.81756	1326.5491	-52.974014	-72.276657	1152.4642	-173.22404	-86.062012	1163.8684	87.777473	-65.787407	1008.6207	55.981976	-197.59126	1258.3365	-97.975182	56.716923	1314.9398	27.530615	125.33125	1105.2671	-4.5345974	173.94705	1027.6493	-100.16068	158.06064	944.44318	-48.963314	135.56201	779.61639	-81.906036	205.13072	790.1319	-105.41378	196.29831	713.57709	-89.876137	-243.00243	1270.2148	50.734406	-294.93915	1139.15	21.859987	-316.80856	962.91052	-115.28596	-258.4057	814.99384	-92.49662	-236.41187	724.71564	-112.32944	-298.01315	738.40173	-151.14619	-273.0509	657.35608	-120.13315	91.891327	890.97064	-74.67411	-199.33093	893.43335	-82.46946	6.7168875	967.34521	-248.95932	-81.44191	964.67029	-256.73236
707	7.06	-73.475357	1488.4359	150.03734	-218.21915	1465.4939	141.73427	-69.058365	1495.2722	11.778436	-217.57782	1465.3129	7.0802822	-109.19421	1325.2716	-47.67075	-71.48925	1152.9236	-170.4207	-84.561462	1160.9081	90.93924	-64.873886	1006.0825	56.793644	-196.3974	1258.1293	-93.372803	58.480186	1312.2323	32.253128	126.63318	1102.8107	-2.1903036	174.93811	1026.1813	-98.839478	159.12065	942.42371	-48.426224	136.38258	778.08746	-82.813431	205.84923	788.71521	-106.67094	197.01096	712.0556	-91.730965	-241.13986	1268.2893	55.799656	-293.50186	1137.5891	25.711781	-316.14737	962.9436	-113.46265	-258.08188	814.79999	-92.20118	-236.31032	724.70691	-112.7037	-297.71576	739.11029	-152.2177	-273.01645	657.51569	-121.26295	92.332642	890.41888	-74.935722	-198.86726	892.98608	-82.54007	7.0859976	967.78223	-248.59491	-81.059731	965.28479	-256.51459
708	7.07	-70.791084	1485.429	155.84387	-215.75478	1463.0121	148.11554	-66.555931	1492.8358	17.611162	-215.19095	1463.3137	13.048309	-107.43825	1324.5306	-43.017986	-70.649712	1153.33	-167.59792	-83.023529	1157.9204	94.103935	-63.884171	1003.5119	57.924042	-195.23593	1257.9434	-88.703209	60.314125	1309.5085	36.862045	127.92248	1100.308	0.067632183	175.96204	1024.6477	-97.432129	159.90312	940.31433	-48.090897	137.15424	776.55493	-83.641212	206.48419	787.20398	-107.93012	197.71451	710.52307	-93.484612	-239.27373	1266.2631	60.834705	-292.0314	1135.9939	29.568583	-315.414	962.823	-111.37855	-257.854	814.61993	-91.850861	-236.17097	724.68201	-113.07641	-296.75482	739.32806	-152.536	-272.93445	657.66418	-122.41476	92.728996	889.86145	-75.281227	-198.44495	892.57642	-82.386528	7.4977865	968.36615	-248.50752	-80.742104	965.79919	-256.20071
709	7.08	-68.198677	1482.2383	161.69923	-213.11528	1460.1246	153.56789	-64.144592	1490.3634	23.48015	-212.78825	1461.2325	19.055611	-105.77811	1323.3986	-38.082222	-69.889168	1153.7206	-164.74086	-81.529343	1154.9025	97.139618	-62.987171	1000.8917	58.959106	-194.00842	1257.6099	-84.014397	62.090359	1306.7224	41.515461	129.08459	1097.7778	2.3897328	176.9418	1023.0599	-96.01889	160.80727	938.30414	-47.497494	137.92239	774.97174	-84.567299	207.05338	785.78491	-109.09881	198.19318	708.9472	-95.317627	-237.3329	1264.1617	65.895615	-290.58768	1134.3199	33.406475	-314.63483	962.68195	-109.25949	-257.59546	814.39728	-91.516289	-236.07671	724.63702	-113.56979	-296.4025	739.70319	-153.02731	-272.92474	657.79218	-123.57582	93.168663	889.27008	-75.50737	-197.98396	892.06396	-82.460945	7.8716836	968.85498	-248.16342	-80.401901	966.41925	-255.862
710	7.09	-65.657188	1478.9299	167.57936	-210.70723	1457.4153	160.01628	-61.715828	1487.861	29.497198	-210.41786	1459.1046	24.897879	-104.22477	1321.6381	-32.414917	-69.057106	1154.0585	-161.9026	-80.051849	1151.828	100.27274	-62.070507	998.28943	59.93079	-192.76651	1257.1987	-79.330719	63.829712	1303.8495	46.213135	130.16219	1095.2079	4.6635966	177.85736	1021.4755	-94.435532	161.64708	936.29248	-46.92844	138.53391	773.52271	-85.514999	207.57428	784.33411	-110.316	198.63748	707.41473	-97.099838	-235.4373	1261.9705	70.947731	-289.10059	1132.5906	37.226173	-314.01404	962.60791	-107.3927	-257.37286	814.16901	-91.355576	-235.94849	724.59473	-113.98295	-295.9917	740.1214	-153.64284	-272.8826	657.91168	-124.82647	93.546867	888.68713	-75.791534	-197.53963	891.51031	-82.663994	8.2245474	969.47571	-247.92128	-80.054962	967.03113	-255.52156
711	7.1	-63.114838	1475.5419	173.52911	-208.14912	1454.2003	165.50305	-59.377609	1485.2909	35.437668	-208.15511	1456.8812	30.978649	-102.52597	1320.5671	-27.691393	-68.302055	1154.349	-158.96515	-78.514549	1148.7339	103.30531	-61.148628	995.67749	60.918739	-191.53415	1256.6671	-74.487923	65.540092	1300.931	50.832809	131.21591	1092.6755	7.0563798	178.78709	1019.876	-93.094887	162.40802	934.25104	-46.348373	139.07053	772.08344	-86.334198	208.0027	782.91541	-111.42966	199.03836	705.89136	-98.879379	-233.57182	1259.7397	76.01239	-287.55313	1130.832	41.069645	-313.42279	962.52075	-105.57925	-257.07498	813.90295	-90.969994	-235.8618	724.5321	-114.48503	-295.64227	740.42987	-154.13763	-272.81934	658.03528	-126.04125	94.030792	888.11542	-76.109077	-197.07072	890.99738	-82.625931	8.542697	970.13586	-247.71405	-79.736427	967.6441	-255.13921
